<?xml version="1.0" encoding="UTF-8"?>
<svg version="1.1" xmlns="http://www.w3.org/2000/svg" width="311" height="295">
<path d="M0 0 C102.63 0 205.26 0 311 0 C311 97.35 311 194.7 311 295 C208.37 295 105.74 295 0 295 C0 197.65 0 100.3 0 0 Z " fill="#FDFDFD" transform="translate(0,0)"/>
<path d="M0 0 C1.53970036 0.01508397 3.07941511 0.02876577 4.61914062 0.04101562 C8.35091745 0.07112679 12.08064735 0.12988992 15.8125 0.1875 C15.8125 9.7575 15.8125 19.3275 15.8125 29.1875 C7.2325 29.5175 -1.3475 29.8475 -10.1875 30.1875 C-10.1875 30.8475 -10.1875 31.5075 -10.1875 32.1875 C-10.8475 32.1875 -11.5075 32.1875 -12.1875 32.1875 C-12.5175 33.5075 -12.8475 34.8275 -13.1875 36.1875 C-13.8475 36.1875 -14.5075 36.1875 -15.1875 36.1875 C-15.19629936 37.61997574 -15.19629936 37.61997574 -15.20527649 39.08139038 C-15.26267548 48.11414969 -15.33552576 57.14667221 -15.42321491 66.17918968 C-15.46780006 70.82207859 -15.50708183 75.46488215 -15.53393555 80.10791016 C-15.56008742 84.59496261 -15.60057247 89.0816845 -15.65068626 93.56853104 C-15.66727504 95.27395111 -15.67883878 96.97942825 -15.68511391 98.68491745 C-15.77294126 120.37555265 -15.77294126 120.37555265 -22.625 129.5625 C-23.20121094 130.35398438 -23.77742188 131.14546875 -24.37109375 131.9609375 C-31.23396778 140.37349276 -38.72465837 143.82182073 -49.1875 146.1875 C-49.1875 146.5175 -49.1875 146.8475 -49.1875 147.1875 C-48.46046875 147.29964844 -47.7334375 147.41179687 -46.984375 147.52734375 C-36.41637735 149.60029714 -27.87374706 154.84746406 -21.625 163.75 C-17.58105251 170.21275721 -15.81457725 176.40091726 -15.80273438 183.97705078 C-15.7973616 184.7098526 -15.79198883 185.44265442 -15.78645325 186.19766235 C-15.77674187 187.77336126 -15.7737108 189.34911323 -15.77680969 190.92483902 C-15.78132179 193.42255088 -15.76719467 195.91956694 -15.74841309 198.41720581 C-15.70558464 204.61513865 -15.69438587 210.81305354 -15.68218994 217.0111084 C-15.6706436 222.2621945 -15.64704301 227.51296008 -15.60749817 232.7639122 C-15.59396992 235.21791996 -15.59808971 237.67148867 -15.60290527 240.1255188 C-15.59356225 241.63593093 -15.58339282 243.14633824 -15.57226562 244.65673828 C-15.57021118 245.96941681 -15.56815674 247.28209534 -15.56604004 248.634552 C-15.15899771 252.45502036 -14.03906881 254.85766995 -12.1875 258.1875 C-12.1875 258.8475 -12.1875 259.5075 -12.1875 260.1875 C-11.5275 260.1875 -10.8675 260.1875 -10.1875 260.1875 C-10.1875 260.8475 -10.1875 261.5075 -10.1875 262.1875 C-7.08799377 263.07623597 -4.20245633 263.37293782 -0.984375 263.50390625 C-0.10104492 263.54201416 0.78228516 263.58012207 1.69238281 263.61938477 C3.36059082 263.68403931 3.36059082 263.68403931 5.0625 263.75 C8.61 263.894375 12.1575 264.03875 15.8125 264.1875 C15.8125 273.4275 15.8125 282.6675 15.8125 292.1875 C10.90429558 292.28010763 5.99920746 292.35949818 1.09082031 292.40722656 C-0.57334754 292.42715287 -2.23744714 292.45430428 -3.90136719 292.48925781 C-14.86018783 292.71344548 -24.1574378 292.2025311 -34.1875 287.1875 C-34.1875 286.5275 -34.1875 285.8675 -34.1875 285.1875 C-35.01701172 285.08888672 -35.01701172 285.08888672 -35.86328125 284.98828125 C-39.16270419 283.85150528 -40.93082081 281.84084105 -43.375 279.375 C-44.25542969 278.50230469 -45.13585938 277.62960937 -46.04296875 276.73046875 C-48.02874344 274.37575231 -48.83115996 273.18494858 -49.1875 270.1875 C-49.8475 270.1875 -50.5075 270.1875 -51.1875 270.1875 C-55.61656409 260.69664838 -55.48019236 250.48816218 -55.49246025 240.23870087 C-55.4961645 237.74933077 -55.51299609 235.26034481 -55.53321838 232.77105713 C-55.58827307 225.70128517 -55.61937763 218.6314609 -55.64379883 211.56152344 C-55.65969546 207.21861008 -55.68992096 202.8759781 -55.72856331 198.53321075 C-55.74017819 196.88587686 -55.74614335 195.2384927 -55.74624443 193.59111786 C-55.74643708 191.28928734 -55.76474139 188.98823296 -55.78686523 186.68652344 C-55.79193588 185.37987732 -55.79700653 184.0732312 -55.80223083 182.72698975 C-56.21877842 178.90014336 -57.30662289 176.51360172 -59.1875 173.1875 C-59.5175 172.1975 -59.8475 171.2075 -60.1875 170.1875 C-61.95341887 169.17833967 -61.95341887 169.17833967 -64.1875 168.1875 C-65.06277344 167.54167969 -65.93804687 166.89585937 -66.83984375 166.23046875 C-70.63880337 163.91208382 -73.74193522 163.15042664 -78.0625 162.4375 C-80.41375 162.025 -82.765 161.6125 -85.1875 161.1875 C-85.1875 151.2875 -85.1875 141.3875 -85.1875 131.1875 C-77.4375 129.8125 -77.4375 129.8125 -75.01660156 129.39306641 C-69.32390114 128.35346746 -65.83317734 127.33470128 -62.125 122.875 C-61.63902344 122.30136719 -61.15304688 121.72773437 -60.65234375 121.13671875 C-56.96474956 116.22976008 -55.75281616 112.7315855 -55.83447266 106.59008789 C-55.83231247 105.84131378 -55.83015228 105.09253967 -55.82792664 104.32107544 C-55.82484633 102.69947828 -55.82842583 101.07785765 -55.83794022 99.45628548 C-55.85174093 96.87680675 -55.84520161 94.29809235 -55.83309937 91.71861267 C-55.80224389 84.38616917 -55.80685982 77.05390334 -55.82714844 69.72143555 C-55.83816421 65.22856307 -55.824662 60.736261 -55.79725266 56.24346733 C-55.79186498 54.54410587 -55.79573856 52.84468545 -55.80965042 51.14537239 C-55.92941979 36.3299611 -54.07407537 24.35561888 -43.46875 13.078125 C-41.1152655 11.12763442 -39.07414676 10.14293942 -36.1875 9.1875 C-36.1875 8.5275 -36.1875 7.8675 -36.1875 7.1875 C-24.30748857 0.68711639 -13.29272044 -0.22846639 0 0 Z " fill="#040404" transform="translate(88.1875,0.8125)"/>
<path d="M0 0 C4.88882486 -0.12519644 9.77668253 -0.21507557 14.66674805 -0.2746582 C16.3241403 -0.29953915 17.98142594 -0.3334573 19.63842773 -0.37719727 C35.72096618 -0.79056762 48.13595709 2.33888915 60.5625 13.25 C62 15 62 15 62 17 C62.66 17 63.32 17 64 17 C72.17067993 27.01567217 71.40682717 39.23779103 71.29296875 51.4765625 C71.28736409 53.25588623 71.28309811 55.03521464 71.28010559 56.81454468 C71.26872528 61.46703172 71.23931782 66.11923175 71.20599365 70.77160645 C71.17514478 75.5312919 71.16156877 80.29102435 71.14648438 85.05078125 C71.11444072 94.36731266 71.06332813 103.68363234 71 113 C71.66 113 72.32 113 73 113 C73.33 114.98 73.66 116.96 74 119 C75.485 119.495 75.485 119.495 77 120 C77.763125 120.78375 78.52625 121.5675 79.3125 122.375 C86.01069192 128.91742001 91.00754635 128.46269944 101 130 C101 139.9 101 149.8 101 160 C95.06 160.99 95.06 160.99 89 162 C81.1439841 165.20879523 76.50550681 169.0664846 73 177 C72.34 177 71.68 177 71 177 C71.01110306 177.97559875 71.02220612 178.95119751 71.03364563 179.95635986 C71.13543301 189.19425586 71.2101614 198.43203663 71.25906086 207.67036819 C71.28504675 212.41883138 71.32024102 217.16683835 71.37719727 221.91503906 C71.43191315 226.50570853 71.46150311 231.0959419 71.47438622 235.68691254 C71.48355564 237.42986659 71.50145979 239.17279941 71.52865028 240.91556549 C71.7382027 254.91596992 69.55985215 267.00355805 60 278 C59.01 278.33 58.02 278.66 57 279 C57 279.66 57 280.32 57 281 C55.68 281.33 54.36 281.66 53 282 C53 282.66 53 283.32 53 284 C51.27473958 284.71614583 49.54947917 285.43229167 47.82421875 286.1484375 C45.73466068 287.06806692 45.73466068 287.06806692 43 289 C34.31744789 291.90471655 24.90327874 291.22785872 15.875 291.125 C14.33073499 291.11494704 12.78646362 291.10582529 11.2421875 291.09765625 C7.49450266 291.07755064 3.74771807 291.03837254 0 291 C0 281.76 0 272.52 0 263 C7.59 263 15.18 263 23 263 C23 262.34 23 261.68 23 261 C23.928125 260.46375 24.85625 259.9275 25.8125 259.375 C29.84966015 256.36691989 30.7348944 253.75976919 32 249 C32.43046569 245.15763673 32.43046569 245.15763673 32.35302734 241.18212891 C32.35518753 240.44599869 32.35734772 239.70986847 32.35957336 238.95143127 C32.36263936 237.367529 32.35911708 235.78360251 32.34955978 234.1997261 C32.33570367 231.68411045 32.34232787 229.16927337 32.35440063 226.65365601 C32.38519633 219.50668017 32.38053399 212.35989138 32.36035156 205.21289062 C32.34937838 200.82679706 32.36273932 196.44129095 32.39024734 192.05527878 C32.39565317 190.39447769 32.3917136 188.73361655 32.37784958 187.07286453 C32.28509676 175.83276621 33.73156386 168.21972123 40.1875 158.8125 C47.47086072 151.52913928 55.12615342 147.73142491 65 145 C63.515 144.5978125 63.515 144.5978125 62 144.1875 C60.66656419 143.79201202 59.33323586 143.39616151 58 143 C56.741875 142.649375 55.48375 142.29875 54.1875 141.9375 C45.23826793 138.43411845 39.16803874 130.78329702 34.52064514 122.67417908 C31.62451365 115.67655325 32.09272159 108.51099408 32.203125 101.046875 C32.20135326 99.33440456 32.19605892 97.62193453 32.18743896 95.90948486 C32.1722894 91.43406154 32.19586259 86.95977969 32.23065186 82.48449707 C32.28141314 75.31034171 32.2794218 68.13622869 32.26424408 60.96195221 C32.26559814 58.47127477 32.28785724 55.98144409 32.31280518 53.49090576 C32.31625141 51.95324833 32.31911013 50.41558944 32.32128906 48.87792969 C32.33993767 47.8553154 32.33993767 47.8553154 32.35896301 46.81204224 C32.34041917 41.83573727 31.39296612 37.36686583 29 33 C23.42797313 28.44830532 18.12990914 28.38466596 11.125 28.3125 C9.23168546 28.27062374 7.33844391 28.22524867 5.4453125 28.17578125 C4.20031982 28.15898315 4.20031982 28.15898315 2.93017578 28.1418457 C1 28 1 28 0 27 C-0.08758003 25.00035018 -0.10696576 22.9976389 -0.09765625 20.99609375 C-0.09443359 19.78115234 -0.09121094 18.56621094 -0.08789062 17.31445312 C-0.07951172 16.03505859 -0.07113281 14.75566406 -0.0625 13.4375 C-0.05798828 12.15423828 -0.05347656 10.87097656 -0.04882812 9.54882812 C-0.03699545 6.36583978 -0.02051068 3.18294238 0 0 Z " fill="#030303" transform="translate(207,2)"/>
<path d="M0 0 C0 97.35 0 194.7 0 295 C-75 295 -75 295 -104 294 C-104 293.67 -104 293.34 -104 293 C-102.59476074 292.97812622 -102.59476074 292.97812622 -101.16113281 292.95581055 C-97.62706118 292.89411907 -94.09368803 292.81985736 -90.56005859 292.73754883 C-89.04160222 292.70465054 -87.52303384 292.6765141 -86.00439453 292.65356445 C-70.59033436 292.61582448 -70.59033436 292.61582448 -56.36035156 287.3972168 C-54 286 -54 286 -51 286 C-51 285.34 -51 284.68 -51 284 C-49.68 283.67 -48.36 283.34 -47 283 C-47 282.34 -47 281.68 -47 281 C-45.87851562 279.92105469 -45.87851562 279.92105469 -44.734375 278.8203125 C-41.78024532 275.77333874 -40.02989259 272.66625103 -38.25 268.875 C-37.94707031 268.25496094 -37.64414062 267.63492187 -37.33203125 266.99609375 C-34.69496656 261.54616007 -33.84144712 257.30682003 -33.79467773 251.31567383 C-33.78477814 250.5349501 -33.77487854 249.75422638 -33.76467896 248.94984436 C-33.73308823 246.36893752 -33.70831612 243.78801227 -33.68359375 241.20703125 C-33.66302213 239.41769431 -33.6420256 237.6283622 -33.62062073 235.83903503 C-33.56542158 231.12907834 -33.51600277 226.41907794 -33.46777344 221.70904541 C-33.41754269 216.90299591 -33.36186483 212.09700988 -33.30664062 207.29101562 C-33.19908542 197.86073131 -33.09763456 188.43039188 -33 179 C-32.34 179 -31.68 179 -31 179 C-30.9175 178.278125 -30.835 177.55625 -30.75 176.8125 C-29.52737706 172.22766397 -26.97893333 169.77404031 -23.3125 166.875 C-16.20320802 162.85087247 -11.34831366 162 -3 162 C-3 152.1 -3 142.2 -3 132 C-5.64 132 -8.28 132 -11 132 C-17.59701586 130.85066154 -22.22789412 128.65571305 -27 124 C-27.598125 123.525625 -28.19625 123.05125 -28.8125 122.5625 C-30.58501326 120.23024571 -30.68251759 117.85734169 -31 115 C-31.66 115 -32.32 115 -33 115 C-33.00586624 114.01996002 -33.01173248 113.03992004 -33.01777649 112.03018188 C-33.075167 102.76196814 -33.14801301 93.49398535 -33.23571491 84.22600746 C-33.28030648 79.46204977 -33.31958692 74.69817538 -33.34643555 69.93408203 C-33.3725809 65.33032455 -33.41306157 60.72688961 -33.46318626 56.12333298 C-33.47977939 54.37325449 -33.49134044 52.6231203 -33.49761391 50.8729744 C-33.09820869 36.11612089 -33.09820869 36.11612089 -38.60346985 22.86904907 C-40 21 -40 21 -40 19 C-40.66 19 -41.32 19 -42 19 C-43.11375 17.4840625 -43.11375 17.4840625 -44.25 15.9375 C-49.82982643 9.14226584 -59.72454972 5.34036443 -68 3 C-70.77626203 2.77267723 -73.46483829 2.62960903 -76.2421875 2.5859375 C-77.01055939 2.56657135 -77.77893127 2.5472052 -78.57058716 2.5272522 C-81.00528138 2.46785883 -83.44002393 2.42123372 -85.875 2.375 C-87.53387386 2.33678307 -89.19272867 2.29772921 -90.8515625 2.2578125 C-94.90088542 2.16219093 -98.95030113 2.07801299 -103 2 C-103 1.67 -103 1.34 -103 1 C-68.68857373 -0.27079357 -34.33495142 0 0 0 Z " fill="#FBFBFB" transform="translate(311,0)"/>
<path d="M0 0 C23.1 0 46.2 0 70 0 C70.495 0.99 70.495 0.99 71 2 C70.13117188 2.26554688 69.26234375 2.53109375 68.3671875 2.8046875 C66.63855469 3.33449219 66.63855469 3.33449219 64.875 3.875 C63.73804688 4.22304687 62.60109375 4.57109375 61.4296875 4.9296875 C58.27248336 5.91496533 55.13372394 6.94272536 52 8 C52 8.66 52 9.32 52 10 C51.154375 10.53625 50.30875 11.0725 49.4375 11.625 C40.58269031 17.38897989 36.25086039 25.80775463 34 36 C33.32717336 41.24759248 33.41427616 46.52448216 33.50011063 51.80504608 C33.54010218 54.36338539 33.54594645 56.91994425 33.54354858 59.47857666 C33.5431889 66.74020166 33.60712678 74.00100373 33.68066406 81.26220703 C33.72363906 85.73304427 33.73232855 90.20297538 33.7216301 94.67398834 C33.72645299 97.17752704 33.77134437 99.6782684 33.81729126 102.18133545 C33.86033273 110.5765386 33.18329804 116.64694496 27.70101929 123.43707275 C26 125 26 125 24 125 C23.67 125.99 23.34 126.98 23 128 C21.0390625 128.9140625 21.0390625 128.9140625 18.625 129.625 C17.83351563 129.86476562 17.04203125 130.10453125 16.2265625 130.3515625 C15.12441406 130.67253906 15.12441406 130.67253906 14 131 C13.01 131.33 12.02 131.66 11 132 C8.36 132 5.72 132 3 132 C3 141.9 3 151.8 3 162 C6.63 162.33 10.26 162.66 14 163 C21.92815011 165.6427167 27.85754716 169.67104498 32 177 C33.18379112 180.55137335 33.14642611 183.40874782 33.17358398 187.15844727 C33.180271 187.88409378 33.18695801 188.6097403 33.19384766 189.3573761 C33.20789421 190.93370959 33.21978953 192.51006337 33.22979546 194.08642769 C33.24624129 196.58885595 33.26948499 199.09113618 33.29469299 201.5934906 C33.36533831 208.7088172 33.42531669 215.82420686 33.47680664 222.93969727 C33.50879338 227.29396927 33.55012562 231.64807472 33.59700203 236.00221062 C33.61291491 237.65461128 33.62528526 239.3070503 33.63390923 240.95950508 C33.6791242 249.50580148 33.88937199 257.66530595 36 266 C36.3403921 267.66523936 36.67541486 269.33160755 37 271 C37.66 271 38.32 271 39 271 C39.89345726 272.37454964 40.78385412 273.75116934 41.66015625 275.13671875 C44.84091153 279.56010146 48.77497359 284.25832453 54 286 C54 286.66 54 287.32 54 288 C55.13888672 288.30744141 55.13888672 288.30744141 56.30078125 288.62109375 C57.79158203 289.02521484 57.79158203 289.02521484 59.3125 289.4375 C60.29863281 289.70433594 61.28476562 289.97117187 62.30078125 290.24609375 C64.21517526 290.78079425 66.11433615 291.37144538 68 292 C70.72883073 292.15370348 73.43697142 292.25728265 76.16796875 292.31640625 C76.96278152 292.33718735 77.7575943 292.35796844 78.57649231 292.37937927 C81.11340763 292.44472087 83.65042573 292.50368808 86.1875 292.5625 C87.90821372 292.60569986 89.62891708 292.64931463 91.34960938 292.69335938 C95.56630113 292.80038648 99.7830962 292.90169724 104 293 C104 293.33 104 293.66 104 294 C69.36178566 295.44325893 34.66826919 295 0 295 C0 197.65 0 100.3 0 0 Z " fill="#FDFDFD" transform="translate(0,0)"/>
<path d="M0 0 C15.84 0 31.68 0 48 0 C48 15.51 48 31.02 48 47 C32.16 47 16.32 47 0 47 C0 31.49 0 15.98 0 0 Z " fill="#070707" transform="translate(131,184)"/>
<path d="M0 0 C0 3 0 3 -1.53125 4.82421875 C-2.1809375 5.43910156 -2.830625 6.05398437 -3.5 6.6875 C-4.1496875 7.31011719 -4.799375 7.93273437 -5.46875 8.57421875 C-5.9740625 9.04472656 -6.479375 9.51523438 -7 10 C-7.66 9.67 -8.32 9.34 -9 9 C-6.21000549 5.51250686 -3.74764169 2.49842779 0 0 Z " fill="#393939" transform="translate(254,155)"/>
<path d="M0 0 C-0.99 0.33 -1.98 0.66 -3 1 C-2.67 1.66 -2.34 2.32 -2 3 C-4.64 2.67 -7.28 2.34 -10 2 C-6.19832777 -0.53444815 -4.31588991 -1.33941411 0 0 Z " fill="#B3B3B3" transform="translate(46,146)"/>
</svg>
